# xmcd
#
# Track frame offsets:
#	150
#	6852
#	22713
#	39781
#	58469
#	75136
#	91973
#	109028
#	125351
#	143930
#	160995
#	173285
#
# Disc length: 2600 seconds
#
# Revision: 0
# Processed by: cddbd v1.5.2PL0 Copyright (c) Steve Scherf et al.
# Submitted via: audiograbber 1.83.01
#
DISCID=800a260c
DTITLE=Rob Lamothe - Long Lazy Curve
DYEAR=2006
DGENRE=Blues
TTITLE0=Hello Beautiful
TTITLE1=Ashes To Ashes
TTITLE2=Romeo's Barbershop
TTITLE3=Good Enough For Me
TTITLE4=Till Forever Is Over
TTITLE5=I Am Here With You
TTITLE6=Ain't Broken Yet
TTITLE7=I Don't Walk Alone
TTITLE8=Broke Down Train
TTITLE9=Goodbye Calgary
TTITLE10=No Wonder
TTITLE11=12 Moons
EXTD=
EXTT0=
EXTT1=
EXTT2=
EXTT3=
EXTT4=
EXTT5=
EXTT6=
EXTT7=
EXTT8=
EXTT9=
EXTT10=
EXTT11=
PLAYORDER=
